<svg xmlns="http://www.w3.org/2000/svg" viewBox="0 0 99.999997 100">
  <path fill="#1a1817" d="M0 100h100V0H0v100z"/>
  <path fill="#fff" d="M50.000398 16.12542c-19.185397 0-34.737538 15.55048-34.737538 34.74198 0 15.3394 9.949655 28.358 23.755497 32.9559 1.739664.3158 2.372631-.7604 2.372631-1.6772 0-.8241-.02654-3.0095-.04777-5.909-9.661701 2.0993-11.698607-4.6549-11.698607-4.6549-1.581754-4.0113-3.860169-5.0769-3.860169-5.0769-3.151564-2.1588.241509-2.1151.241509-2.1151 3.488616.2468 5.322495 3.5788 5.322495 3.5788 3.095831 5.3104 8.129046 3.7712 10.110218 2.8848.311839-2.2466 1.208874-3.7712 2.201451-4.6417-7.713703-.8731-15.822844-3.8614-15.822844-17.1692 0-3.78709 1.356168-6.89213 3.573543-9.31778-.355629-.88109-1.545926-4.41075.343686-9.19443 0 0 2.912709-.93417 9.551562 3.56289 2.769396-.77228 5.7458-1.15847 8.695664-1.17174 2.951191.0138 5.923614.39946 8.694337 1.17174 6.636199-4.49706 9.550235-3.56289 9.550235-3.56289 1.890939 4.78368.700643 8.31334.341033 9.19443 2.222682 2.42565 3.572215 5.53069 3.572215 9.31778 0 13.3463-8.125065 16.2828-15.86398 17.144 1.246029 1.0721 2.360688 3.1873 2.360688 6.4291 0 4.6443-.04246 8.3902-.04246 9.5301 0 .9274.627659 2.0063 2.389881 1.6666 13.788592-4.5979 23.732939-17.6112 23.732939-32.9453 0-19.1915-15.54816-34.74198-34.736211-34.74198"/>
</svg>
