<svg xmlns="http://www.w3.org/2000/svg" viewBox="0 0 99.999997 100">
  <path fill="#3479bc" d="M0 100h100V0H0v100z"/>
  <path fill="#fff" d="M17.110995 38.60385H31.22043V83.9304H17.110995V38.60385zm7.05936-22.53322c4.510297 0 8.168692 3.66243 8.168692 8.16615 0 4.50903-3.658395 8.17014-8.168692 8.17014-4.526216 0-8.17665-3.66111-8.17665-8.17014 0-4.50372 3.650434-8.16615 8.17665-8.16615m15.895511 22.53322h13.512311v6.19433h.191081c1.878958-3.56561 6.480814-7.32092 13.338482-7.32092 14.262037 0 16.90001 9.38303 16.90001 21.59114v24.862h-14.0829v-22.037c0-5.2613-.103502-12.0235-7.32608-12.0235-7.336695 0-8.453986 5.7258-8.453986 11.6347v22.4258H40.065866V38.60385"/>
</svg>
