<svg xmlns="http://www.w3.org/2000/svg" viewBox="0 0 99.999997 100">
  <path fill="#ee6f21" d="M0 100h100V-.00005H0V100z"/>
  <path fill="#fff" d="M20.03161 72.0904c5.18704 0 9.39081 4.2089 9.39081 9.3934 0 5.191-4.20377 9.3921-9.39081 9.3921-5.18837 0-9.39214-4.2011-9.39214-9.3921 0-5.1844 4.20377-9.3934 9.39214-9.3934"/>
  <path fill="#fff" d="M10.65009 57.8057c8.80297 0 17.07384 3.4435 23.29589 9.688 6.22604 6.258 9.6509 14.5871 9.6509 23.4552h13.55875c0-25.7534-20.86095-46.70731-46.50554-46.70731V57.8057"/>
  <path fill="#fff" d="M10.66734 33.76401c31.36507 0 56.88758 25.66189 56.88758 57.19559h13.5561c0-39.0163-31.59861-70.757-70.44368-70.757v13.56141"/>
</svg>
