<svg xmlns="http://www.w3.org/2000/svg" viewBox="0 0 99.999997 100">
  <path fill="#50abe4" d="M0 100h100V0H0v100z"/>
  <path fill="#fff" d="M83.331016 29.32483c-2.453527 1.08946-5.090173 1.82459-7.855533 2.15366 2.823745-1.69317 4.995959-4.37092 6.013729-7.56618-2.6393 1.56706-5.565221 2.70694-8.682222 3.31999-2.495989-2.65918-6.05221-4.31922-9.985285-4.31922-7.554315 0-13.676854 6.12513-13.676854 13.67676 0 1.07344.120752 2.11514.352968 3.11565-11.366638-.56794-21.443482-6.0124-28.191013-14.29108-1.175676 2.02351-1.851093 4.37091-1.851093 6.87881 0 4.74247 2.413719 8.93155 6.082731 11.38246-2.241216-.069-4.349736-.68874-6.194194-1.71048v.17123c0 6.62667 4.715973 12.15477 10.96988 13.41127-1.145156.3119-2.35666.483-3.602664.483-.879767 0-1.739629-.089-2.572953-.2494 1.739629 5.4351 6.789994 9.3867 12.77453 9.5008-4.677492 3.6676-10.57445 5.8558-16.98759 5.8558-1.101367 0-2.189464-.068-3.258984-.1925 6.05221 3.8774 13.241615 6.1424 20.968434 6.1424 25.154956 0 38.912754-20.8368 38.912754-38.9136 0-.58916-.01592-1.17969-.03715-1.77151 2.665839-1.92405 4.98269-4.33376 6.820514-7.07786"/>
</svg>
