<svg xmlns="http://www.w3.org/2000/svg" width="100" height="100">
  <path fill="#cf282a" d="M0 100h100V0H0v100z"/>
  <path fill="#fff" d="M43.04 9.77h-4.56l-3.07 11.8-3.2-11.8h-4.7c1 2.8 2 5.6 2.9 8.38 1.5 4.2 2.4 7.36 2.8 9.52v12.18h4.5V27.67l5.4-17.9zM55.08 32.6v-7.86c0-2.4-.42-4.15-1.27-5.28-1.1-1.53-2.7-2.3-4.7-2.3s-3.6.77-4.7 2.3c-.8 1.13-1.3 2.88-1.3 5.28v7.85c0 2.3.4 4.1 1.3 5.2 1.1 1.5 2.7 2.3 4.8 2.3 2.1 0 3.6-.8 4.8-2.3.86-1.1 1.28-2.9 1.28-5.3zm-4.07.76c0 2.07-.6 3.1-1.9 3.1-1.3 0-1.9-1.03-1.9-3.1v-9.43c0-2.08.7-3.1 2-3.1s2 1.02 2 3.1v9.43zm19.1 6.5V17.42h-4v17.14c-.9 1.27-1.7 1.9-2.5 1.9-.5 0-.8-.32-.9-.95-.02-.1-.02-.6-.02-1.6V17.4h-4.1v17.75c0 1.58.14 2.65.37 3.33.4 1.13 1.3 1.66 2.6 1.66 1.5 0 3-.9 4.63-2.76v2.45h4.03m13.1 27.22c0 5.2 0 10.7-1.16 15.72-.85 3.54-3.75 6.15-7.2 6.54-8.28 1-16.6 1-24.9 1-8.3 0-16.7 0-24.9-.9-3.5-.4-6.4-3-7.2-6.5-1.23-5.1-1.23-10.6-1.23-15.8 0-5.2 0-10.6 1.18-15.7.8-3.5 3.7-6.1 7.2-6.5 8.25-.9 16.6-.9 24.9-.9 8.3 0 16.67 0 24.9.9 3.5.4 6.4 3 7.2 6.56 1.16 5.04 1.15 10.53 1.15 15.7"/>
  <path fill="#cf282a" d="M35.72 55.86v-4.2H21.7v4.2h4.73v25.58h4.47V55.86h4.82zm8.12 25.58v-2.42c-1.6 1.83-3.12 2.73-4.6 2.73-1.3 0-2.18-.53-2.58-1.65-.23-.68-.36-1.73-.36-3.3V59.26h4.02V75.6c0 .93 0 1.42.04 1.55.1.63.4.94.94.94.8 0 1.65-.7 2.54-1.9v-17h4.02v22.2h-4.02zM59.1 75.1c0 2-.58 3-1.74 3-.66 0-1.33-.32-2-1V63.6c.67-.66 1.34-.97 2-.97 1.16 0 1.75 1.04 1.75 3.03v9.47zm4.03-.3v-8.85c0-2.1-.14-3.57-.4-4.46-.53-1.7-1.63-2.5-3.23-2.5-1.46 0-2.83.8-4.13 2.4v-9.8h-4.02v29.8h4.02v-2.1c1.34 1.6 2.72 2.4 4.15 2.4 1.6 0 2.7-.9 3.22-2.5.27-1 .4-2.4.4-4.5zm11.15-7.06h-4.02V65.7c0-2.06.67-3.1 2.02-3.1 1.33 0 2 1.04 2 3.1v2.04zm4.02 6.6v-.58h-4.1c0 1.6-.05 2.5-.1 2.72-.22 1.07-.8 1.6-1.8 1.6-1.37 0-2.04-1-2.04-3.06v-3.94h8.04v-4.6c0-2.36-.4-4.1-1.25-5.22C75.93 59.74 74.33 59 72.3 59c-2.04 0-3.64.74-4.8 2.26-.86 1.12-1.24 2.86-1.24 5.23v7.7c0 2.3.43 4.1 1.3 5.2 1.15 1.5 2.75 2.3 4.85 2.3 2.1 0 3.8-.8 4.9-2.4.5-.7.8-1.5 1-2.4.1-.4.1-1.3.1-2.6"/>
</svg>
